<svg clip-rule="evenodd" fill-rule="evenodd" height="300" image-rendering="optimizeQuality" shape-rendering="geometricPrecision" text-rendering="geometricPrecision" viewBox="0 0 512 512" width="300" xmlns="http://www.w3.org/2000/svg" version="1.1" xmlns:xlink="http://www.w3.org/1999/xlink" xmlns:svgjs="http://svgjs.dev/svgjs"><g width="100%" height="100%" transform="matrix(1,0,0,1,0,0)"><g id="Layer_x0020_1"><g fill="#368498"><path d="m312 133h-112c-8 0-15-7-15-15v-79c0-8 7-15 15-15h112c8 0 15 7 15 15v79c0 8-7 15-15 15zm-84-35c-11 0-19-9-19-20 0-10 8-19 19-19s20 9 20 19c0 11-9 20-20 20zm56 0c-11 0-20-9-20-20 0-10 9-19 20-19s20 9 20 19c0 11-9 20-20 20zm0-27c-5 0-8 3-8 7 0 5 3 8 8 8 4 0 8-3 8-8 0-4-4-7-8-7zm-56 0c-4 0-7 3-7 7 0 5 3 8 7 8 5 0 8-3 8-8 0-4-3-7-8-7z" fill="#ffffff" fill-opacity="1" data-original-color="#368498ff" stroke="none" stroke-opacity="1"/><path d="m191 97h-12c-10 0-18-8-18-18v-1c0-10 8-18 18-18h12c3 0 6 2 6 6v25c0 4-3 6-6 6zm142 0h-12c-3 0-6-2-6-6v-25c0-4 3-6 6-6h12c10 0 18 8 18 18v1c0 10-8 18-18 18z" fill="#ffffff" fill-opacity="1" data-original-color="#368498ff" stroke="none" stroke-opacity="1"/><path d="m167 84c-3 0-6-2-6-6v-72c0-3 3-6 6-6s6 3 6 6v72c0 4-3 6-6 6z" fill="#ffffff" fill-opacity="1" data-original-color="#368498ff" stroke="none" stroke-opacity="1"/><path d="m345 84c-3 0-6-2-6-6v-72c0-3 3-6 6-6s6 3 6 6v72c0 4-3 6-6 6z" fill="#ffffff" fill-opacity="1" data-original-color="#368498ff" stroke="none" stroke-opacity="1"/><path d="m275 172h-38c-3 0-6-3-6-6v-21h50v21c0 3-3 6-6 6z" fill="#ffffff" fill-opacity="1" data-original-color="#368498ff" stroke="none" stroke-opacity="1"/><path d="m327 332h-141c-11 0-20-9-20-20v-132c0-11 9-20 20-20h141c11 0 19 9 19 20v132c0 11-8 20-19 20zm-17-30h-108c-4 0-6-3-6-6v-100c0-3 2-6 6-6h108c4 0 6 3 6 6v100c0 3-2 6-6 6zm-102-12h96v-88h-96z" fill="#ffffff" fill-opacity="1" data-original-color="#368498ff" stroke="none" stroke-opacity="1"/><path d="m233 390v-64c0-4 3-6 6-6h34c3 0 6 2 6 6v64c-1 0-2 0-3 0h-40c-1 0-2 0-3 0z" fill="#ffffff" fill-opacity="1" data-original-color="#368498ff" stroke="none" stroke-opacity="1"/><path d="m276 512h-40c-10 0-19-8-19-19v-73c0-10 9-18 19-18h40c11 0 19 8 19 18v73c0 11-8 19-19 19z" fill="#ffffff" fill-opacity="1" data-original-color="#368498ff" stroke="none" stroke-opacity="1"/><path d="m373 283v-86c0-3 2-6 6-6h14c10 0 19 9 19 20v72c-5-3-12-6-20-6-7 0-13 2-19 6z" fill="#ffffff" fill-opacity="1" data-original-color="#368498ff" stroke="none" stroke-opacity="1"/><path d="m340 217c-3 0-6-2-6-6 0-3 3-6 6-6h39c3 0 6 3 6 6s-1 5-3 6c2 5 3 15 3 17 0 3-3 6-6 6h-39c-3 0-6-3-6-6 0-4 3-6 6-6z" fill="#ffffff" fill-opacity="1" data-original-color="#368498ff" stroke="none" stroke-opacity="1"/><path d="m392 342c-14 0-26-12-26-26 0-15 12-27 26-27 15 0 27 12 27 27 0 14-12 26-27 26z" fill="#ffffff" fill-opacity="1" data-original-color="#368498ff" stroke="none" stroke-opacity="1"/></g><path d="m445 496h-105c-2 0-4-1-5-2s-1-3-1-5l12-86c0-3 3-5 6-5h5v6c0 10 8 18 18 18 8 0 16-6 17-15 2 9 9 15 18 15 10 0 18-8 18-18v-6h5c3 0 5 2 6 5l12 86v1c0 3-3 6-6 6z" fill="#7577ff" fill-opacity="1" data-original-color="#f4a996ff" stroke="none" stroke-opacity="1"/><path d="m410 410c-3 0-6-3-6-6v-15c0-3-5-7-12-7-6 0-11 4-11 7v15c0 3-3 6-6 6-4 0-6-3-6-6v-15c0-11 10-19 23-19 14 0 24 8 24 19v15c0 3-3 6-6 6z" fill="#ffffff" fill-opacity="1" data-original-color="#368498ff" stroke="none" stroke-opacity="1"/><path d="m392 382c-3 0-6-2-6-6v-40c0-3 3-6 6-6 4 0 6 3 6 6v40c0 4-2 6-6 6z" fill="#ffffff" fill-opacity="1" data-original-color="#368498ff" stroke="none" stroke-opacity="1"/><path d="m139 283v-86c0-3-2-6-6-6h-14c-10 0-19 9-19 20v72c5-3 12-6 20-6 7 0 13 2 19 6z" fill="#ffffff" fill-opacity="1" data-original-color="#368498ff" stroke="none" stroke-opacity="1"/><path d="m172 217c3 0 6-2 6-6 0-3-3-6-6-6h-39c-3 0-6 3-6 6s1 5 3 6c-2 5-3 15-3 17 0 3 3 6 6 6h39c3 0 6-3 6-6 0-4-3-6-6-6z" fill="#ffffff" fill-opacity="1" data-original-color="#368498ff" stroke="none" stroke-opacity="1"/><path d="m120 342c14 0 26-12 26-26 0-15-12-27-26-27-15 0-27 12-27 27 0 14 12 26 27 26z" fill="#ffffff" fill-opacity="1" data-original-color="#368498ff" stroke="none" stroke-opacity="1"/><path d="m67 496h105c2 0 4-1 5-2s1-3 1-5l-12-86c0-3-3-5-6-5h-5v6c0 10-8 18-18 18-8 0-16-6-17-15-2 9-9 15-18 15-10 0-18-8-18-18v-6h-5c-3 0-5 2-6 5l-12 86v1c0 3 3 6 6 6z" fill="#7577ff" fill-opacity="1" data-original-color="#f4a996ff" stroke="none" stroke-opacity="1"/><path d="m102 410c3 0 6-3 6-6v-15c0-3 5-7 12-7 6 0 11 4 11 7v15c0 3 3 6 6 6 4 0 6-3 6-6v-15c0-11-10-19-23-19-14 0-24 8-24 19v15c0 3 3 6 6 6z" fill="#ffffff" fill-opacity="1" data-original-color="#368498ff" stroke="none" stroke-opacity="1"/><path d="m120 382c3 0 6-2 6-6v-40c0-3-3-6-6-6-4 0-6 3-6 6v40c0 4 2 6 6 6z" fill="#ffffff" fill-opacity="1" data-original-color="#368498ff" stroke="none" stroke-opacity="1"/><path d="m284 71c-5 0-8 3-8 7 0 5 3 8 8 8 4 0 8-3 8-8 0-4-4-7-8-7z" fill="#7577ff" fill-opacity="1" data-original-color="#f4a996ff" stroke="none" stroke-opacity="1"/><path d="m236 78c0-4-3-7-8-7-4 0-7 3-7 7 0 5 3 8 7 8 5 0 8-3 8-8z" fill="#7577ff" fill-opacity="1" data-original-color="#f4a996ff" stroke="none" stroke-opacity="1"/></g></g></svg>