<?xml version="1.0" encoding="utf-8"?>
<!-- Generator: Adobe Illustrator 24.1.2, SVG Export Plug-In . SVG Version: 6.00 Build 0)  -->
<svg version="1.1" id="Layer_1" xmlns="http://www.w3.org/2000/svg" xmlns:xlink="http://www.w3.org/1999/xlink" x="0px" y="0px"
	 viewBox="0 0 2512.5 974.8" style="enable-background:new 0 0 2512.5 974.8;" xml:space="preserve">
<style type="text/css">
	.st0{fill:#FFFFFF;}
	.st1{fill:url(#SVGID_1_);}
</style>
<path class="st0" d="M847.8,266.8H860l79.6,172.1h-13.9L904,391H803.1l-21.7,47.9h-13.2L847.8,266.8z M898.6,379.6l-44.9-98.9
	l-45.2,98.9H898.6z"/>
<path class="st0" d="M1013.6,441.6c-10.3,0-19.6-1.6-28.2-4.8c-8.5-3.2-16-7.9-22.2-14.2c-6.3-6.3-11.1-14-14.5-23.2
	s-5.1-19.7-5.1-31.6V268h12.7v98.6c0,20.4,5.1,36,15.3,47s24.4,16.5,42.6,16.5c17.4,0,31.2-5.2,41.5-15.6s15.4-26,15.4-46.6V268
	h12.7v98.4c0,12.2-1.7,23-5.1,32.4s-8.2,17.2-14.4,23.6c-6.2,6.3-13.5,11.1-22.1,14.4C1033.5,440,1024,441.6,1013.6,441.6z"/>
<path class="st0" d="M1158.4,279.5h-59.6V268h131.8v11.5H1171v159.4h-12.7L1158.4,279.5L1158.4,279.5z"/>
<path class="st0" d="M1320.7,441.9c-12.9,0-24.6-2.4-35.2-7.2c-10.6-4.8-19.6-11.2-27.1-19.3c-7.5-8.1-13.3-17.4-17.3-28
	c-4.1-10.6-6.1-21.7-6.1-33.4v-0.5c0-11.7,2.1-22.9,6.2-33.6c4.2-10.7,10-20.1,17.5-28.2s16.6-14.6,27.2-19.4
	c10.7-4.8,22.4-7.2,35.3-7.2c13,0,24.8,2.4,35.3,7.2c10.5,4.8,19.5,11.2,27,19.3c7.5,8.1,13.3,17.4,17.3,28
	c4.1,10.6,6.1,21.7,6.1,33.4c0.2,0.2,0.2,0.3,0,0.5c0,11.7-2.1,22.9-6.2,33.6c-4.2,10.7-10,20.1-17.5,28.2s-16.5,14.6-27.1,19.4
	C1345.5,439.5,1333.7,441.9,1320.7,441.9z M1321.2,430.4c10.6,0,20.3-2,29.2-6c8.9-4,16.5-9.4,23-16.4c6.4-6.9,11.4-15,15-24.3
	s5.4-19.2,5.4-29.8v-0.5c0-10.6-1.8-20.6-5.5-29.9c-3.7-9.4-8.7-17.5-15.1-24.4s-14.1-12.4-23.1-16.5s-18.7-6.1-29.3-6.1
	c-10.6,0-20.3,2-29.2,6c-8.9,4-16.5,9.4-22.9,16.4c-6.4,6.9-11.4,15-15,24.3s-5.4,19.2-5.4,29.8v0.5c0,10.6,1.8,20.5,5.5,29.9
	s8.7,17.5,15.1,24.4s14.1,12.4,23.1,16.5C1300.8,428.4,1310.6,430.4,1321.2,430.4z"/>
<path class="st0" d="M1429.3,268h12l68.6,101.1l68.6-101.1h12v170.9h-12.7V290.5l-67.8,98.4h-1l-67.8-98.4v148.4h-12V268H1429.3z"/>
<path class="st0" d="M1695.2,266.8h12.2l79.6,172.1h-13.9l-21.7-47.9h-100.8l-21.7,47.9h-13.2L1695.2,266.8z M1746,379.6l-44.9-98.9
	l-45.2,98.9H1746z"/>
<path class="st0" d="M1828.8,279.5h-59.6V268H1901v11.5h-59.6v159.4h-12.7L1828.8,279.5L1828.8,279.5z"/>
<path class="st0" d="M1925.5,268h12.7v170.9h-12.7V268z"/>
<path class="st0" d="M2056.8,441.9c-12.9,0-24.6-2.4-35.2-7.2c-10.6-4.8-19.6-11.2-27.1-19.3c-7.5-8.1-13.3-17.4-17.3-28
	c-4.1-10.6-6.1-21.7-6.1-33.4v-0.5c0-11.7,2.1-22.9,6.2-33.6c4.2-10.7,10-20.1,17.5-28.2s16.6-14.6,27.2-19.4
	c10.7-4.8,22.4-7.2,35.3-7.2c13,0,24.8,2.4,35.3,7.2c10.5,4.8,19.5,11.2,27,19.3c7.5,8.1,13.3,17.4,17.3,28
	c4.1,10.6,6.1,21.7,6.1,33.4c0.2,0.2,0.2,0.3,0,0.5c0,11.7-2.1,22.9-6.2,33.6c-4.2,10.7-10,20.1-17.5,28.2s-16.5,14.6-27.1,19.4
	C2081.6,439.5,2069.8,441.9,2056.8,441.9z M2057.3,430.4c10.6,0,20.3-2,29.2-6s16.5-9.4,22.9-16.4c6.4-6.9,11.4-15,15-24.3
	s5.4-19.2,5.4-29.8v-0.5c0-10.6-1.8-20.6-5.5-29.9c-3.7-9.4-8.7-17.5-15.1-24.4c-6.4-6.9-14.1-12.4-23.1-16.5s-18.7-6.1-29.3-6.1
	c-10.6,0-20.3,2-29.2,6c-8.9,4-16.5,9.4-23,16.4c-6.4,6.9-11.4,15-15,24.3s-5.4,19.2-5.4,29.8v0.5c0,10.6,1.8,20.5,5.5,29.9
	s8.7,17.5,15.1,24.4s14.1,12.4,23.1,16.5C2036.9,428.4,2046.7,430.4,2057.3,430.4z"/>
<path class="st0" d="M2166.9,268h12L2297,416.7V268h12v170.9h-9.5L2178.9,287v151.9h-12V268z"/>
<path class="st0" d="M920.5,476H956l75.1,176.5h-40.3l-16-39.3h-74.1l-16,39.3h-39.3L920.5,476z M961,579.4l-23.3-56.8l-23.3,56.8
	H961z"/>
<path class="st0" d="M1041.9,477.3h35.6l82.1,107.9V477.3h38.1v175.3h-32.8L1080,541.1v111.4h-38.1V477.3z"/>
<path class="st0" d="M1277.8,583.4l-67.4-106.2h45.1l41.8,70.3l42.6-70.3h43.8l-67.4,105.4v69.9h-38.6L1277.8,583.4L1277.8,583.4z"
	/>
<path class="st0" d="M1382.9,477.3h41.3l36.3,118.7l39.3-119.2h33l39.3,119.2l36.3-118.7h40.3L1589,653.8h-33.5l-39.6-114.7
	l-39.6,114.7h-33.5L1382.9,477.3z"/>
<path class="st0" d="M1671.1,477.3h38.6v69.4h71.1v-69.4h38.6v175.3h-38.6v-70.4h-71.1v70.4h-38.6V477.3z"/>
<path class="st0" d="M1850.1,477.3h132v34.3h-93.9v35.6h82.6v34.3h-82.6v36.8h95.1v34.3h-133.2V477.3z"/>
<path class="st0" d="M2011.6,477.3h80.1c22.2,0,39.2,5.9,51.1,17.8c10,10,15,23.4,15,40.1v0.5c0,14.2-3.5,25.7-10.4,34.7
	c-6.9,8.9-16,15.5-27.2,19.7l42.8,62.6h-45l-37.6-56.1h-0.5h-29.8v56.1h-38.6V477.3H2011.6z M2089.2,562.6c9.5,0,16.8-2.3,21.9-6.8
	c5.1-4.5,7.6-10.6,7.6-18.1v-0.5c0-8.4-2.7-14.7-8-18.9s-12.8-6.3-22.3-6.3h-38.3v50.6H2089.2z"/>
<path class="st0" d="M2181.3,477.3h132v34.3h-93.9v35.6h82.6v34.3h-82.6v36.8h95.1v34.3h-133.2L2181.3,477.3L2181.3,477.3z"/>
<path class="st0" d="M2383.3,208.8c19.4,0,34.8,15.8,34.8,35.5s-15.5,35.5-34.8,35.5c-19.2,0-34.5-15.8-34.5-35.5
	S2364.1,208.8,2383.3,208.8z M2383.3,273.3c15.7,0,27.7-12.6,27.7-28.9s-12.1-28.9-27.7-28.9c-15.5,0-27.4,12.6-27.4,28.9
	S2367.8,273.3,2383.3,273.3z M2371.4,225.9h14.1c6.9,0,11.6,4.4,11.6,11.2c0,5.6-3.7,9-6.7,9.7v0.2c0,0,0.4,0.4,1.3,2l7,13.5h-7.6
	l-6.8-14.2h-5.9v14.2h-6.9v-36.6H2371.4z M2384.1,243.3c3.6,0,5.9-2.3,5.9-6.2c0-3.8-2.3-5.9-5.9-5.9h-5.8v12.2h5.8V243.3z"/>
<linearGradient id="SVGID_1_" gradientUnits="userSpaceOnUse" x1="84.6208" y1="488.95" x2="872.5044" y2="488.95" gradientTransform="matrix(1 0 0 -1 0 974)">
	<stop  offset="0" style="stop-color:#FDDB00"/>
	<stop  offset="4.567214e-02" style="stop-color:#FBCC04"/>
	<stop  offset="0.1762" style="stop-color:#F7A80D"/>
	<stop  offset="0.3132" style="stop-color:#F48915"/>
	<stop  offset="0.4567" style="stop-color:#F1721B"/>
	<stop  offset="0.6093" style="stop-color:#EF6120"/>
	<stop  offset="0.7774" style="stop-color:#EE5722"/>
	<stop  offset="0.991" style="stop-color:#EE5423"/>
	<stop  offset="1" style="stop-color:#EE5423"/>
</linearGradient>
<path class="st1" d="M854.3,757c-14.7-18.6-37.6-35-56-47.2c-39.6-26.3-75.7-45.1-115.1-59.7L497.4,137.4c-1-3.3-5.5-16-14.8-28.8
	C467.5,87.9,447.3,77,424.1,77s-43.4,10.9-58.5,31.6c-9.4,12.9-13.8,25.5-14.8,28.8l-265,729.2c-3.7,10.2,1.6,21.5,11.8,25.3
	c2.2,0.8,4.5,1.2,6.7,1.2c6.2,0,12.1-3,15.8-8c0.6-0.8,1.2-1.6,1.7-2.4c39.6-66.9,96.1-122.9,163.2-162
	c69.2-40.3,148.3-61.6,228.8-61.6c36.6,0,72.7,4.4,107.6,12.8l0,0c10.6,2.8,21,5.9,31,9.2l33.9,93.8l0.1,0.2
	c0.1,0.4,13.7,36.7,23.5,61.4c11.5,29.1,32.6,48.3,59.4,54.3c5.6,1.2,11.3,1.9,17,1.9c21.5,0,43.4-8.6,60-24.1
	c16.8-15.8,25.9-36,26.2-58.3C872.7,791.3,866.1,771.9,854.3,757z M265.3,686.6c-36.4,21.2-70,47-99.8,76.6l222.9-613.8
	c0.1-0.2,3.4-9.6,9.7-18.3c6.8-9.4,14.3-14.6,26-14.6s19.4,5.3,26.1,14.6c6.2,8.7,9.4,17.6,9.6,18.4l175.9,485.4
	c-39.4-10-80.3-15.2-121.8-15.2C426.5,619.6,340.5,642.8,265.3,686.6z M819.3,839.8c-11.6,10.9-27.4,15.6-41.4,12.5
	c-13.8-3.1-24.6-13.6-31.3-30.4c-9.4-23.8-22.4-58.4-23.2-60.6l-22.1-61.2c24.8,11.4,49.2,25.1,75.2,42.4
	c15.9,10.6,35.6,24.6,46.9,38.8C833.3,794,840.5,820,819.3,839.8z"/>
</svg>
